<?xml version="1.0" encoding="UTF-8" standalone="no"?>
<svg
   xmlns:dc="http://purl.org/dc/elements/1.1/"
   xmlns:cc="http://creativecommons.org/ns#"
   xmlns:rdf="http://www.w3.org/1999/02/22-rdf-syntax-ns#"
   xmlns:svg="http://www.w3.org/2000/svg"
   xmlns="http://www.w3.org/2000/svg"
   xmlns:sodipodi="http://sodipodi.sourceforge.net/DTD/sodipodi-0.dtd"
   xmlns:inkscape="http://www.inkscape.org/namespaces/inkscape"
   inkscape:export-ydpi="13.108706"
   inkscape:export-xdpi="13.108706"
   inkscape:export-filename="/home/jplatte/Projekte/ruma/www.ruma.io/graphs/ruma.png"
   inkscape:version="1.0 (4035a4fb49, 2020-05-01)"
   sodipodi:docname="ruma.svg"
   viewBox="0 0 1652.3923 703.04425"
   height="703.04425"
   width="1652.3923"
   xml:space="preserve"
   id="svg995"
   version="1.1"><metadata
     id="metadata1001"><rdf:RDF><cc:Work
         rdf:about=""><dc:format>image/svg+xml</dc:format><dc:type
           rdf:resource="http://purl.org/dc/dcmitype/StillImage" /><dc:title></dc:title></cc:Work></rdf:RDF></metadata><defs
     id="defs999"><clipPath
       id="clipPath1023"
       clipPathUnits="userSpaceOnUse"><path
         id="path1021"
         d="M 0,2040 H 2040 V 0 H 0 Z" /></clipPath></defs><sodipodi:namedview
     inkscape:current-layer="g1003"
     inkscape:window-maximized="1"
     inkscape:window-y="0"
     inkscape:window-x="0"
     inkscape:cy="281.3668"
     inkscape:cx="673.92907"
     inkscape:zoom="0.2847521"
     fit-margin-bottom="50"
     fit-margin-right="75"
     fit-margin-left="87.5"
     fit-margin-top="50"
     lock-margins="false"
     showgrid="false"
     id="namedview997"
     inkscape:window-height="1019"
     inkscape:window-width="1920"
     inkscape:pageshadow="2"
     inkscape:pageopacity="0"
     guidetolerance="10"
     gridtolerance="10"
     objecttolerance="10"
     borderopacity="1"
     bordercolor="#666666"
     pagecolor="#ffffff" /><g
     transform="matrix(1.3333333,0,0,-1.3333333,-527.55345,1711.522)"
     inkscape:label="1"
     inkscape:groupmode="layer"
     id="g1003"><g
       transform="translate(830.7805,1090.3713)"
       id="g1005"><path
         id="path1007"
         style="fill:#fbd10b;fill-opacity:1;fill-rule:nonzero;stroke:none"
         d="m 0,0 -172.814,155.77 -0.359,-0.397 -0.358,0.397 L -346.345,0 -369.49,-20.862 h 31.159 40.044 v -246.147 -29.504 l 20.862,20.862 118.024,118.025 h 76.451 v -0.4 h 20.862 v 0.4 20.862 115.902 h 54.073 31.16 z" /></g><path
       id="path1009"
       style="fill:#090103;fill-opacity:1;fill-rule:nonzero;stroke:none"
       d="m 652.991,1066.272 h -24.1 v 24.1 h 24.1 z" /><path
       id="path1011"
       style="fill:#090103;fill-opacity:1;fill-rule:nonzero;stroke:none"
       d="m 684.284,1066.272 h -24.1 v 24.1 h 24.1 z" /><path
       id="path1013"
       style="fill:#090103;fill-opacity:1;fill-rule:nonzero;stroke:none"
       d="m 652.991,1034.619 h -24.1 v 24.099 h 24.1 z" /><path
       id="path1015"
       style="fill:#090103;fill-opacity:1;fill-rule:nonzero;stroke:none"
       d="m 684.284,1034.619 h -24.1 v 24.099 h 24.1 z" /><g
       id="g1017"><g
         clip-path="url(#clipPath1023)"
         id="g1019"><g
           transform="translate(747.8528,889.7294)"
           id="g1025"><path
             id="path1027"
             style="fill:#090103;fill-opacity:1;fill-rule:nonzero;stroke:none"
             d="m 0,0 v 200.291 h 85.439 c 38.096,0 57.145,-16.016 57.145,-48.042 0,-26.052 -18.628,-45.335 -55.885,-57.846 L 155.471,0 H 121.294 L 57.565,90.061 v 16.947 c 38.284,6.07 57.426,20.776 57.426,44.121 0,18.488 -10.644,27.732 -31.934,27.732 H 25.912 V 0 Z" /></g><g
           transform="translate(929.2345,967.0448)"
           id="g1029"><path
             id="path1031"
             style="fill:#090103;fill-opacity:1;fill-rule:nonzero;stroke:none"
             d="M 0,0 V 122.976 H 25.912 V 0 c 0,-38.472 19.141,-57.706 57.426,-57.706 38.284,0 57.426,19.234 57.426,57.706 v 122.976 h 25.912 V 0 c 0,-52.478 -27.78,-78.716 -83.338,-78.716 C 27.779,-78.716 0,-52.478 0,0" /></g><g
           transform="translate(1142.1316,889.7294)"
           id="g1033"><path
             id="path1035"
             style="fill:#090103;fill-opacity:1;fill-rule:nonzero;stroke:none"
             d="M 0,0 V 200.291 H 32.915 L 106.447,33.195 178.58,200.291 h 31.515 V 0 H 186.984 V 164.295 L 115.832,0 H 95.382 L 23.11,164.295 V 0 Z" /></g><g
           transform="translate(1406.4314,889.7294)"
           id="g1037"><path
             id="path1039"
             style="fill:#090103;fill-opacity:1;fill-rule:nonzero;stroke:none"
             d="M 0,0 H -26.893 L 58.126,200.291 H 86.84 L 172.278,0 H 143.565 L 117.652,63.029 H 51.403 l 7.143,21.009 h 50.423 L 71.572,174.8 Z" /></g><g
           transform="translate(606.5901,943.1765)"
           id="g1041"><path
             id="path1043"
             style="fill:#090103;fill-opacity:1;fill-rule:nonzero;stroke:none"
             d="m 0,0 c 0,-5.553 -4.518,-10.071 -10.071,-10.071 -5.554,0 -10.072,4.518 -10.072,10.071 0,5.553 4.518,10.071 10.072,10.071 C -4.518,10.071 0,5.553 0,0 m 141.24,147.195 v 0 V 10.431 H 12.027 C 8.109,18.715 -0.3,24.459 -10.071,24.459 -23.58,24.459 -34.531,13.508 -34.531,0 c 0,-13.508 10.951,-24.459 24.46,-24.459 9.771,0 18.18,5.744 22.098,14.028 h 23.259 l -88.521,-88.521 v 246.147 0 h -37.76 L 51.018,275.201 193.031,147.195 Z m 82.95,0 -172.814,155.77 -0.358,-0.397 -0.358,0.397 -172.815,-155.77 -23.145,-20.862 h 31.16 40.043 v -246.147 -29.504 l 20.862,20.862 118.025,118.025 h 76.45 v -0.4 h 20.862 v 0.4 20.862 115.902 h 54.074 31.159 z" /></g></g></g></g></svg>
